<svg width="128" height="83" viewBox="0 0 128 83" fill="none" xmlns="http://www.w3.org/2000/svg">
<path d="M46.3544 41.8783C46.3544 51.8194 54.4132 59.8783 64.3544 59.8783L83.599 59.8783C86.3604 59.8783 88.599 57.6397 88.599 54.8783L88.599 29.6127C88.599 24.0898 84.1218 19.6127 78.599 19.6127L51.3544 19.6127C48.5929 19.6127 46.3544 21.8512 46.3544 24.6127L46.3544 41.8783Z" fill="#FFF1DA"/>
<path d="M82.6892 45.1096C81.1344 45.2807 79.6356 45.7744 78.286 46.5594C74.7668 48.5432 72.8183 51.7682 73.9342 53.7621C75.0501 55.756 78.8074 55.7631 82.3266 53.7793C83.6967 53.0307 84.8965 52.0036 85.8522 50.7613C86.2944 50.1586 86.34 49.3429 85.9687 48.6814L84.5191 46.0912C84.1501 45.4279 83.432 45.0432 82.6892 45.1096Z" fill="#D5D6DB"/>
<path d="M72.0969 12.5736C70.9695 12.6979 69.8827 13.0561 68.9039 13.6254C66.3528 15.0635 64.939 17.4019 65.7475 18.8465C66.5559 20.2911 69.2815 20.2961 71.8324 18.8581C72.8258 18.315 73.6956 17.5697 74.3888 16.6688C74.7091 16.2319 74.7419 15.641 74.4728 15.1613L73.4232 13.2858C73.1559 12.8051 72.6356 12.5256 72.0969 12.5736Z" fill="#D5D6DB"/>
<path d="M57.3251 12.1491C57.0698 12.0869 56.8026 12.1237 56.5754 12.2519L50.5837 15.6242C50.0824 15.9052 49.9072 16.5471 50.1928 17.0583C50.2582 17.1754 50.3449 17.2794 50.4481 17.3641L66.2394 30.4036L86.2189 19.1589L57.3251 12.1491Z" fill="#029BC5"/>
<path d="M122.526 17.3996L68.0403 48.8602L35.4236 58.95L18.622 60.3583L16.5981 56.5946L107.473 5.40946C110.181 3.87588 113.24 3.12581 116.342 3.23556C117.701 3.29171 119.05 3.52632 120.36 3.93328C121.52 4.28408 122.63 4.80622 123.655 5.48416C124.799 6.24997 126.928 6.61162 127.672 7.92706C127.674 7.92541 129.55 13.7543 122.526 17.3996V17.3996Z" fill="#E1E6E9"/>
<path d="M68.5045 42.5301L46.1216 81.2286C45.8451 81.7772 46.056 82.4604 46.5922 82.7545C46.9213 82.935 47.3137 82.9327 47.635 82.7487L53.6295 79.322C54.7825 78.6626 55.7888 77.7644 56.5864 76.683L100.981 22.9742L68.5045 42.5301Z" fill="#029BC5"/>
<path d="M7.13782 37.427C6.72559 37.2316 6.24703 37.246 5.85314 37.4655L0.907525 40.2217C0.233631 40.5969 -0.000607418 41.4516 0.384141 42.131C0.457434 42.2601 0.550182 42.3774 0.659416 42.478L15.5612 56.2492L30.1393 48.3226L7.13782 37.427Z" fill="#029BC5"/>
<path d="M20.4089 58.2075L13.2306 68.9103C13.1252 69.0638 13.1616 69.2789 13.3118 69.3906C13.4201 69.471 13.5632 69.4781 13.6761 69.4087L18.3078 66.7561C18.3437 66.7355 18.3759 66.7079 18.402 66.6751L28.9947 53.2961L20.4089 58.2075Z" fill="#029BC5"/>
<path d="M119.484 3.91111C118.137 3.51015 116.747 3.28234 115.349 3.23233C114.078 5.08928 113.312 7.26075 113.128 9.53019C113.128 9.99089 113.496 10.3698 113.948 10.3766C114.089 10.3786 114.227 10.3439 114.35 10.2755L122.877 5.44656C121.821 4.77339 120.679 4.25645 119.484 3.91111Z" fill="#029BC5"/>
<path d="M100.785 12.7676L106.337 9.75409L112.146 19.7316L106.594 22.7451L100.785 12.7676Z" fill="#D5D6DB"/>
<path d="M97.3308 16.4509C96.662 16.8143 96.4292 17.6482 96.8115 18.3136L97.4309 19.3915C97.8355 20.044 98.6951 20.2603 99.351 19.8745C99.9752 19.507 100.195 18.7212 99.8524 18.0761L99.233 16.9982C98.851 16.3334 97.9997 16.0883 97.3308 16.4509V16.4509Z" fill="#3A556A"/>
<path d="M92.3143 19.3856C91.6455 19.7489 91.4128 20.5829 91.7951 21.2483L92.4144 22.3262C92.819 22.9787 93.6786 23.195 94.3345 22.8092C94.9587 22.4417 95.178 21.6559 94.8359 21.0108L94.2165 19.9328C93.8342 19.2682 92.9829 19.0231 92.3143 19.3856V19.3856Z" fill="#3A556A"/>
<path d="M87.2963 22.3215C86.6282 22.6855 86.3965 23.5185 86.7785 24.1833L87.3978 25.2612C87.8024 25.9137 88.662 26.13 89.3179 25.7442C89.9421 25.3767 90.1614 24.5909 89.8193 23.9458L89.1999 22.8679C88.8176 22.2026 87.9654 21.958 87.2963 22.3215V22.3215Z" fill="#3A556A"/>
<path d="M82.2801 25.2563C81.612 25.6203 81.3802 26.4534 81.7622 27.1182L82.3816 28.1961C82.7862 28.8486 83.6458 29.0649 84.3017 28.6791C84.9259 28.3116 85.1452 27.5258 84.803 26.8807L84.1837 25.8028C83.8011 25.1376 82.9489 24.893 82.2801 25.2563V25.2563Z" fill="#3A556A"/>
<path d="M77.2642 28.1913C76.5958 28.5553 76.3639 29.3885 76.7461 30.0533L77.3658 31.1313C77.7478 31.7958 78.5996 32.0402 79.2682 31.6772C79.9369 31.3141 80.1692 30.4811 79.7872 29.8166L79.1674 28.7386C78.7863 28.0736 77.9348 27.8283 77.2656 28.1905C77.2651 28.1908 77.2648 28.191 77.2642 28.1913Z" fill="#3A556A"/>
<path d="M72.2479 31.1261C71.5795 31.4901 71.3476 32.3233 71.7298 32.9881L72.3495 34.0661C72.7315 34.7306 73.5833 34.975 74.2519 34.612C74.9206 34.2489 75.1529 33.4159 74.7709 32.7514L74.1511 31.6734C73.77 31.0084 72.9185 30.7631 72.2493 31.1253C72.2488 31.1256 72.2482 31.1259 72.2479 31.1261Z" fill="#3A556A"/>
<path d="M67.2313 34.0611C66.5629 34.4251 66.331 35.2583 66.7132 35.9231L67.3329 37.0011C67.7157 37.6651 68.5678 37.9082 69.2357 37.5445C69.9024 37.1814 70.1343 36.3501 69.7539 35.6865L69.1342 34.6085C68.7523 33.9436 67.9005 33.6985 67.2313 34.0611Z" fill="#3A556A"/>
<path d="M62.2149 36.996C61.5464 37.3601 61.3145 38.1932 61.6967 38.8581L62.3164 39.9361C62.6993 40.6001 63.5514 40.8432 64.2193 40.4795C64.886 40.1164 65.1179 39.2851 64.7375 38.6215L64.1178 37.5435C63.7359 36.8785 62.8841 36.6334 62.2149 36.996Z" fill="#3A556A"/>
<path d="M57.1985 39.9307C56.5301 40.2948 56.2982 41.1279 56.6804 41.7927L57.3001 42.8707C57.683 43.5348 58.535 43.7779 59.2029 43.4141C59.8697 43.051 60.1015 42.2197 59.7211 41.5561L59.1014 40.4782C58.7192 39.8134 57.8675 39.5682 57.1985 39.9307Z" fill="#3A556A"/>
<path d="M52.1807 42.8664C51.5121 43.2294 51.2797 44.0625 51.6618 44.727L51.6626 44.7284L52.2823 45.8064C52.6652 46.4705 53.5172 46.7136 54.1851 46.3498C54.8518 45.9867 55.0837 45.1554 54.7033 44.4918L54.0836 43.4138C53.7017 42.7488 52.8499 42.5037 52.1807 42.8664Z" fill="#3A556A"/>
<path d="M47.1655 45.8006C46.4968 46.1636 46.2645 46.9967 46.6465 47.6612L46.6473 47.6626L47.267 48.7406C47.6499 49.4046 48.502 49.6477 49.1699 49.284C49.8366 48.9209 50.0685 48.0896 49.6881 47.426L49.0684 46.348C48.6862 45.6832 47.8344 45.4381 47.1655 45.8006Z" fill="#3A556A"/>
</svg>
