<?xml version="1.0" ?><svg xmlns="http://www.w3.org/2000/svg" xmlns:xlink="http://www.w3.org/1999/xlink" version="1.1" id="Layer_1" viewBox="0 0 100 100" style="enable-background:new 0 0 100 100;" xml:space="preserve"><style type="text/css">
	.st0{fill:#DCFFD2;}
	.st1{fill:#333333;}
</style><g><circle class="st0" cx="50" cy="27" r="10.5"/><path class="st1" d="M77.1,82.4c0-0.1,0-0.1,0-0.2V47.7c0-0.1,0-0.1,0-0.2c0-0.1,0-0.2-0.1-0.3c0-0.1-0.1-0.1-0.1-0.2   c0,0,0-0.1-0.1-0.2c0,0,0,0,0,0c-0.1-0.1-0.1-0.1-0.2-0.2c-0.1,0-0.1-0.1-0.2-0.1c-0.1,0-0.1,0-0.2-0.1c-0.1,0-0.2,0-0.2-0.1   c0,0,0,0,0,0H60c-0.5-3.2-2.4-6-5.4-7.5c-2.1-1.1-3.5-3.5-3.5-6v-2.4c1.5-0.5,2.6-1.9,2.6-3.5c0-1.6-1.1-3-2.6-3.5v-3.7   c0-0.7-0.5-1.2-1.2-1.2c-0.7,0-1.2,0.5-1.2,1.2v3.7c-1.5,0.5-2.6,1.9-2.6,3.5c0,1.6,1.1,3,2.6,3.5V33c0,3.5,1.8,6.6,4.8,8.1   c2.1,1.1,3.6,3.1,4,5.4H42.2v-5.1l2.7,2c0.5,0.4,1.3,0.3,1.7-0.3c0.4-0.5,0.3-1.3-0.3-1.7l-4.6-3.3c-0.4-0.3-0.8-0.3-1.2-0.1   c-0.4,0.2-0.7,0.6-0.7,1.1v7.5H24c0,0,0,0,0,0c-0.1,0-0.2,0-0.3,0.1c-0.1,0-0.1,0-0.2,0.1c-0.1,0-0.1,0.1-0.2,0.1   c-0.1,0-0.1,0.1-0.2,0.2c0,0,0,0,0,0c0,0-0.1,0.1-0.1,0.2c0,0.1-0.1,0.1-0.1,0.2c0,0.1,0,0.2-0.1,0.3c0,0.1,0,0.1,0,0.2v34.6   c0,0.1,0,0.1,0,0.2c0,0.1,0,0.2,0.1,0.3c0,0.1,0.1,0.1,0.1,0.2c0,0.1,0,0.1,0.1,0.2c0,0,0,0,0,0c0.1,0.1,0.2,0.2,0.3,0.2   c0,0,0.1,0,0.1,0.1c0.1,0.1,0.3,0.1,0.5,0.1H76c0.2,0,0.3,0,0.5-0.1c0,0,0.1,0,0.1-0.1c0.1-0.1,0.2-0.1,0.3-0.2c0,0,0,0,0,0   c0,0,0.1-0.1,0.1-0.2c0-0.1,0.1-0.1,0.1-0.2C77.1,82.6,77.1,82.5,77.1,82.4z M50,25.7c0.8,0,1.4,0.6,1.4,1.4c0,0.8-0.6,1.4-1.4,1.4   c-0.8,0-1.4-0.6-1.4-1.4C48.6,26.3,49.2,25.7,50,25.7z M25.2,50.3L41.8,65L25.2,79.6V50.3z M57.7,48.9c-0.4,3.5-3.1,6.2-6.5,6.8   v-1.8c0-0.7-0.5-1.2-1.2-1.2c-0.7,0-1.2,0.5-1.2,1.2V60c0,0.7,0.5,1.2,1.2,1.2c0.7,0,1.2-0.5,1.2-1.2v-2c4.7-0.6,8.5-4.4,8.9-9.2   h12.7L50,69L27.2,48.9H57.7z M43.6,66.6l5.6,5c0.2,0.2,0.5,0.3,0.8,0.3c0.3,0,0.6-0.1,0.8-0.3l5.6-5l16.4,14.5H27.2L43.6,66.6z    M58.2,65l16.6-14.6v29.3L58.2,65z"/></g></svg>