<?xml version="1.0" ?><svg xmlns="http://www.w3.org/2000/svg" xmlns:xlink="http://www.w3.org/1999/xlink" version="1.1" id="design" viewBox="0 0 100 100" style="enable-background:new 0 0 100 100;" xml:space="preserve"><style type="text/css">
	.st0{fill:#D5FFA2;}
	.st1{fill:#333333;}
</style><g><circle class="st0" cx="40.7" cy="38.8" r="17"/><path class="st1" d="M80.9,70.8L65.1,55c2.2-3.1,3.5-6.8,3.5-10.8c0-10.3-8.4-18.8-18.8-18.8c-5.4,0-10.3,2.3-13.7,6c0,0,0,0,0,0   H19c-0.7,0-1.2,0.5-1.2,1.2c0,0.7,0.5,1.2,1.2,1.2h15.2c-0.8,1.1-1.4,2.4-1.9,3.7H19c-0.7,0-1.2,0.5-1.2,1.2S18.3,40,19,40h12.6   c-0.3,1.2-0.4,2.4-0.5,3.7H19c-0.7,0-1.2,0.5-1.2,1.2s0.5,1.2,1.2,1.2h12.2c1,9.5,9,16.9,18.7,16.9c3.2,0,6.2-0.8,8.8-2.2l16.2,16   c0.8,0.9,1.9,1.3,3.1,1.3c1.1,0,2.1-0.4,3-1.2c0.8-0.8,1.3-1.8,1.3-3C82.3,72.9,81.8,71.7,80.9,70.8z M34.6,50.1h14.8   c0.7,0,1.2-0.5,1.2-1.2s-0.5-1.2-1.2-1.2H34.2c-0.1,0-0.2,0-0.4,0.1c-0.2-1.1-0.4-2.3-0.4-3.5c0-0.1,0-0.2,0-0.3h16.4   c0.7,0,1.2-0.5,1.2-1.2s-0.5-1.2-1.2-1.2H33.7c0.2-1.3,0.6-2.5,1.1-3.7h18.9c0.7,0,1.2-0.5,1.2-1.2s-0.5-1.2-1.2-1.2H36.1   c2.9-4.5,8-7.5,13.7-7.5c9,0,16.3,7.3,16.3,16.3s-7.3,16.3-16.3,16.3C42.9,60.6,36.9,56.2,34.6,50.1z M79.2,75.2   c-0.4,0.4-0.9,0.5-1.4,0.5c-0.5,0-0.9-0.2-1.3-0.6c0,0,0,0,0,0L61.1,59.8l2.7-2.7l15.4,15.4c0.4,0.4,0.6,0.9,0.6,1.4   C79.8,74.5,79.6,74.9,79.2,75.2z"/></g></svg>